<svg preserveAspectRatio="none" overflow="visible" style="display: block;" width="30.3517" height="32" viewBox="0 0 30.3517 32" fill="none" xmlns="http://www.w3.org/2000/svg">
<g id="Badge">
<path id="Vector" d="M30.3504 32L30.3504 14.4379L30.3321 14.4379C29.9468 6.39999 23.3091 4.07526e-06 15.1758 2.6532e-06C7.04262 1.23114e-06 0.403604 6.39868 0.019603 14.4379L0.00131533 14.4379L0.00131226 32L30.3517 32L30.3504 32Z" fill="#DB9600"/>
<g id="Group 2147228811" opacity="0.7">
<path id="Vector_2" d="M30.0988 31.4333L30.0988 14.2919L30.0808 14.2919C29.7021 6.4466 23.1777 0.199946 15.1834 0.199945C7.18907 0.199943 0.663432 6.44532 0.285988 14.2919L0.268013 14.2919L0.26801 31.4333L30.1 31.4333L30.0988 31.4333Z" fill="url(#paint0_radial_0_208)"/>
<path id="Vector_3" d="M29.8988 31.7L29.8988 14.4122L29.8809 14.4122C29.5047 6.49994 23.0241 0.199946 15.0834 0.199945C7.14267 0.199943 0.660781 6.49865 0.285868 14.4122L0.268013 14.4122L0.26801 31.6999L29.9 31.7L29.8988 31.7Z" fill="url(#paint1_linear_0_208)"/>
</g>
<path id="Vector_4" d="M15.1746 2.22041C18.5248 2.22041 21.7039 3.49518 24.1241 5.80963C26.5378 8.11625 27.9537 11.2183 28.113 14.5437L28.1287 14.8806L28.1287 29.7796L2.21783 29.7796L2.21783 14.8793L2.23351 14.5437C2.39285 11.2183 3.80999 8.11624 6.2224 5.80963C8.64265 3.49518 11.8217 2.22041 15.172 2.22041M15.1746 2.6532e-06C7.04134 1.23114e-06 0.402321 6.39868 0.0183195 14.4379L3.19193e-05 14.4379L2.88486e-05 32L30.3517 32L30.3517 14.4379L30.3334 14.4379C29.9481 6.39999 23.3104 4.07571e-06 15.1772 2.65366e-06L15.1746 2.6532e-06Z" fill="#976300"/>
<path id="Vector_5" d="M15.1746 1.95919C18.5927 1.95919 21.8358 3.26008 24.3044 5.62024C26.7664 7.97388 28.211 11.1386 28.3742 14.5306L28.3912 14.8741L28.3912 30.0408L1.9579 30.0408L1.95791 14.8741L1.97489 14.5319C2.13685 11.1399 3.58273 7.97518 6.04477 5.62155C8.51465 3.26008 11.7564 1.96048 15.1746 1.96049M15.1746 2.6532e-06C7.04134 1.23114e-06 0.402321 6.39868 0.0183195 14.4379L3.19193e-05 14.4379L2.88486e-05 32L30.3517 32L30.3517 14.4379L30.3334 14.4379C29.9481 6.39999 23.3104 4.07571e-06 15.1772 2.65366e-06L15.1746 2.6532e-06Z" fill="#DB9600"/>
<path id="Vector_6" d="M15.1746 1.95919C18.5927 1.95919 21.8358 3.26008 24.3044 5.62024C26.7664 7.97388 28.211 11.1386 28.3742 14.5306L28.3912 14.8741L28.3912 30.0408L1.9579 30.0408L1.95791 14.8741L1.97489 14.5319C2.13685 11.1399 3.58273 7.97518 6.04477 5.62155C8.51465 3.26008 11.7564 1.96048 15.1746 1.96049M15.1746 2.6532e-06C7.04134 1.23114e-06 0.402321 6.39868 0.0183195 14.4379L3.19193e-05 14.4379L2.88486e-05 32L30.3517 32L30.3517 14.4379L30.3334 14.4379C29.9481 6.39999 23.3104 4.07571e-06 15.1772 2.65366e-06L15.1746 2.6532e-06Z" fill="#F7B201"/>
<path id="Vector_7" d="M15.1746 1.95919C18.5927 1.95919 21.8358 3.26008 24.3044 5.62024C26.7664 7.97388 28.211 11.1386 28.3742 14.5306L28.3912 14.8741L28.3912 30.0408L1.9579 30.0408L1.95791 14.8741L1.97489 14.5319C2.13685 11.1399 3.58273 7.97518 6.04477 5.62155C8.51465 3.26008 11.7564 1.96048 15.1746 1.96049M15.1746 2.6532e-06C7.04134 1.23114e-06 0.402321 6.39868 0.0183195 14.4379L3.19193e-05 14.4379L2.88486e-05 32L30.3517 32L30.3517 14.4379L30.3334 14.4379C29.9481 6.39999 23.3104 4.07571e-06 15.1772 2.65366e-06L15.1746 2.6532e-06Z" fill="url(#paint2_linear_0_208)"/>
<path id="Vector (Stroke)" d="M15.1745 2.65319e-06L15.1771 2.65364e-06C23.2468 4.06459e-06 29.8442 6.30036 30.3232 14.2497L30.3333 14.4379L30.3517 14.4379L30.3517 32L2.88486e-05 32L3.19193e-05 14.4379L0.0182611 14.4379L0.0284173 14.2497C0.506102 6.2991 7.10485 2.50642e-05 15.1745 2.65319e-06ZM15.1745 0.133336C7.11281 0.133359 0.532085 6.47585 0.151464 14.4443L0.145474 14.5712L0.133365 14.5712L0.133362 31.8667L30.2184 31.8667L30.2184 14.5712L30.2063 14.5712L30.2003 14.4443C29.8184 6.4771 23.2388 0.133337 15.1771 0.133336L15.1745 0.133336ZM28.3912 14.8741L28.3742 14.5306C28.211 11.1386 26.7663 7.97382 24.3043 5.62019C21.8743 3.29693 18.6938 2.00012 15.3347 1.96016L15.1745 1.96055L15.0145 1.96146C11.6554 2.00138 8.4761 3.29695 6.04482 5.62148L5.93011 5.73242C3.53785 8.07409 2.13433 11.1929 1.9749 14.5319L1.95784 14.8741L1.95784 30.0407L28.3912 30.0408L28.3912 14.8741ZM28.5245 30.1741L1.82451 30.1741L1.82451 14.8708L1.82477 14.8674L1.8417 14.5253C2.00536 11.0991 3.46604 7.90224 5.95263 5.52513C8.44732 3.13995 11.7221 1.82723 15.1745 1.82722L15.1745 1.82591C18.6269 1.82591 21.9031 3.13994 24.3965 5.52383C26.8832 7.90101 28.3425 11.0979 28.5074 14.5241L28.5244 14.8676L28.5245 14.8708L28.5245 30.1741Z" fill="#FFD387"/>
</g>
<defs>
<radialGradient id="paint0_radial_0_208" cx="0" cy="0" r="1" gradientTransform="matrix(0.209376 -24.3049 23.2144 0.197192 14.9747 20.5028)" gradientUnits="userSpaceOnUse">
<stop offset="0.484046" stop-color="#734900" stop-opacity="0"/>
<stop offset="0.73092" stop-color="#734900"/>
</radialGradient>
<linearGradient id="paint1_linear_0_208" x1="15.084" y1="18.4895" x2="15.0724" y2="31.773" gradientUnits="userSpaceOnUse">
<stop offset="0.532485" stop-color="#734900" stop-opacity="0"/>
<stop offset="0.85" stop-color="#734900"/>
</linearGradient>
<linearGradient id="paint2_linear_0_208" x1="14.9635" y1="-1.87882" x2="16.4397" y2="28.3165" gradientUnits="userSpaceOnUse">
<stop stop-color="#FFD387"/>
<stop offset="1" stop-color="#FFD387" stop-opacity="0"/>
</linearGradient>
</defs>
</svg>
