<svg preserveAspectRatio="none" overflow="visible" style="display: block;" width="141.728" height="112" viewBox="0 0 141.728 112" fill="none" xmlns="http://www.w3.org/2000/svg">
<path id="Arrow 5" d="M2 0C0.89543 0 0 0.89543 0 2C0 3.10457 0.89543 4 2 4V2V0ZM125.586 111.414C126.367 112.195 127.633 112.195 128.414 111.414L141.142 98.6863C141.923 97.9052 141.923 96.6389 141.142 95.8579C140.361 95.0768 139.095 95.0768 138.314 95.8579L127 107.172L115.686 95.8579C114.905 95.0768 113.639 95.0768 112.858 95.8579C112.077 96.6389 112.077 97.9052 112.858 98.6863L125.586 111.414ZM2 2V4H117V2V0H2V2ZM127 12H125V110H127H129V12H127ZM117 2V4C121.418 4 125 7.58172 125 12H127H129C129 5.37258 123.627 0 117 0V2Z" fill="#B0CCFE"/>
</svg>
