<svg preserveAspectRatio="none" overflow="visible" style="display: block;" width="58.4303" height="18.2077" viewBox="0 0 58.4303 18.2077" fill="none" xmlns="http://www.w3.org/2000/svg">
<path id="Vector" d="M58.3728 8.11644C57.8026 3.6069 53.9464 0 49.1375 0H9.2966C4.48764 0 0.631471 3.61064 0.0612979 8.11644C-0.0887477 9.30375 0.0462888 10.506 0.361384 11.6596L1.69679 16.5325C1.69679 16.5325 5.68801 17.8172 10.3544 17.0344C10.137 16.2368 9.50341 10.9651 9.50341 10.9651C9.50341 10.9651 13.8092 14.1653 17.1477 16.3902C21.6341 19.3828 26.6869 17.9969 29.9241 17.0306C31.1507 16.6636 31.5821 15.2928 32.1823 13.6934C33.0038 11.5023 34.8012 9.95646 36.3242 10.7542C37.8509 11.552 37.8953 15.9819 39.6883 17.0306C42.4379 18.6374 45.1125 17.0306 45.1125 17.0306L45.8702 13.2777C45.8702 13.2777 47.4232 15.9482 48.5935 17.113C49.7639 18.2779 56.5947 17.0306 56.5947 17.0306L58.0689 11.6559C58.384 10.5023 58.5191 9.29625 58.369 8.11269L58.3728 8.11644Z" fill="#FFC249"/>
</svg>
