<svg preserveAspectRatio="none" overflow="visible" style="display: block;" width="30.9487" height="35.7353" viewBox="0 0 30.9487 35.7353" fill="none" xmlns="http://www.w3.org/2000/svg">
<g id="Group 2147228693">
<path id="Vector" d="M15.4743 5.01949e-08L2.86315e-08 8.93382L8.58944e-08 26.8014L15.4743 35.7353L30.9487 26.8014L30.9487 8.93382L15.4743 5.01949e-08Z" fill="#4585F3"/>
<path id="Vector_2" d="M15.4743 5.01949e-08L2.86315e-08 8.93382L8.58944e-08 26.8014L15.4743 35.7353L30.9487 26.8014L30.9487 8.93382L15.4743 5.01949e-08Z" fill="url(#paint0_radial_0_195)" fill-opacity="0.7"/>
<path id="Vector_3" d="M15.4743 1.51547L29.6359 9.69082L29.6359 26.043L15.4743 34.2183L1.31274 26.043L1.31274 9.69082L15.4743 1.51547ZM15.4743 5.01949e-08L2.86315e-08 8.93382L8.58944e-08 26.8014L15.4743 35.7353L30.9487 26.8014L30.9487 8.93382L15.4743 5.01949e-08Z" fill="#5C4D53"/>
<path id="Vector_4" d="M15.4743 2.8632L28.469 10.3661L28.469 25.3706L15.4743 32.8735L2.47963 25.3706L2.47963 10.3661L15.4743 2.8632ZM15.4743 5.01949e-08L2.86315e-08 8.93382L8.58944e-08 26.8014L15.4743 35.7353L30.9487 26.8014L30.9487 8.93382L15.4743 5.01949e-08Z" fill="#184DA4"/>
<path id="Vector_5" d="M15.4743 2.52627L28.7608 10.1969L28.7608 25.5383L15.4743 33.209L2.18791 25.5383L2.18791 10.1969L15.4743 2.52627ZM15.4743 5.01949e-08L2.86315e-08 8.93382L8.58944e-08 26.8014L15.4743 35.7353L30.9487 26.8014L30.9487 8.93382L15.4743 5.01949e-08Z" fill="#8AB4FC"/>
<path id="Vector_6" d="M15.4743 2.52627L28.7608 10.1969L28.7608 25.5383L15.4743 33.209L2.18791 25.5383L2.18791 10.1969L15.4743 2.52627ZM15.4743 5.01949e-08L2.86315e-08 8.93382L8.58944e-08 26.8014L15.4743 35.7353L30.9487 26.8014L30.9487 8.93382L15.4743 5.01949e-08Z" fill="url(#paint1_linear_0_195)"/>
<path id="Vector (Stroke)" d="M30.9487 8.93382L30.9487 26.8014L15.4743 35.7353L8.58944e-08 26.8014L2.86315e-08 8.93382L15.4743 5.01949e-08L30.9487 8.93382ZM0.148899 9.01975L0.148899 26.7154L15.4743 35.5632L30.7998 26.7154L30.7998 9.01975L15.4743 0.171871L0.148899 9.01975ZM15.4743 2.5263L2.18798 10.197L2.18798 25.5383L15.4743 33.209L28.7608 25.5383L28.7608 10.197L15.4743 2.5263ZM28.9097 25.6242L15.4743 33.381L2.03908 25.6242L2.03908 10.111L15.4743 2.35429L28.9097 10.111L28.9097 25.6242Z" fill="#C5D9FF"/>
<path id="Vector_7" d="M15.5849 8.46029L18.0428 14.1861L24.2382 14.7584C24.5663 14.7883 24.6991 15.1977 24.4515 15.4159L19.7758 19.5265L21.1479 25.6064C21.221 25.9292 20.8735 26.1817 20.5901 26.0128L15.2418 22.8272L9.89356 26.0128C9.61018 26.1817 9.26268 25.9292 9.33576 25.6064L10.7079 19.5265L6.03222 15.4159C5.78464 15.1977 5.91738 14.7883 6.2455 14.7584L12.4409 14.1861L14.8988 8.46029C15.0286 8.15697 15.4581 8.15697 15.5894 8.46029L15.5849 8.46029Z" fill="#FFC249"/>
<path id="Vector (Stroke)_2" d="M14.8988 8.46029C15.0286 8.15697 15.4581 8.15697 15.5894 8.46029L15.5849 8.46029L18.0427 14.186L24.2382 14.7583C24.5663 14.7882 24.6991 15.1977 24.4515 15.4158L19.7759 19.5264L21.1479 25.6064C21.2187 25.9191 20.8948 26.1658 20.6169 26.0274L20.5902 26.0128L15.2419 22.8271L9.89355 26.0128L9.86679 26.0274C9.58888 26.1657 9.26502 25.919 9.33576 25.6064L10.7078 19.5264L6.0322 15.4158C5.78464 15.1977 5.91741 14.7882 6.24552 14.7583L12.441 14.186L14.8988 8.46029ZM15.4318 8.48094C15.3349 8.33635 15.1079 8.35032 15.0358 8.51874L15.0357 8.51889L12.5429 14.3262L6.25919 14.9066C6.06229 14.9246 5.98039 15.1715 6.13065 15.304L10.8063 19.4145L10.8726 19.473L9.48102 25.6391C9.43674 25.8348 9.64689 25.9864 9.81735 25.8849L15.2419 22.6538L20.6663 25.8849L20.6825 25.8936C20.8498 25.9769 21.0456 25.8289 21.0027 25.6393L19.6111 19.473L24.3531 15.304C24.5034 15.1715 24.4216 14.9246 24.2247 14.9066L17.9409 14.3262L15.4318 8.48094Z" fill="#FFE1B0"/>
<g id="Intersect">
<path d="M12.2049 24.3653C12.2119 24.359 12.2195 24.3552 12.2272 24.3522L12.2049 24.3653Z" fill="#FFE1B0"/>
<path d="M11.3108 23.7184C11.3349 23.6462 11.4173 23.6227 11.4708 23.68C11.478 23.6878 11.5252 23.7578 11.5279 23.7653C11.5546 23.8403 11.541 24.0024 11.5443 24.0886C11.5468 24.1505 11.5705 24.2208 11.5547 24.2688C11.4743 24.2283 11.3913 24.1912 11.3051 24.1576C11.2863 24.0182 11.2771 23.8192 11.3108 23.7184Z" fill="#FFE1B0"/>
<path d="M12.5154 22.5404C12.5492 22.5396 12.673 22.5064 12.6875 22.5373L12.7313 22.8165L12.7655 23.3245C12.7886 23.3167 12.8093 23.3085 12.8342 23.3055L12.8345 23.3057C12.9547 23.291 13.0899 23.3027 13.2071 23.2965C13.2662 23.2933 13.3614 23.2819 13.4619 23.2737C13.539 23.3255 13.5849 23.3324 13.5854 23.3325C13.5853 23.3327 13.5846 23.3335 13.5835 23.3346C13.5868 23.3323 13.5899 23.3301 13.593 23.3278C13.5556 23.3751 13.4998 23.4469 13.4363 23.5309C13.4137 23.54 13.3933 23.5515 13.3675 23.5544C13.342 23.5572 13.3167 23.5482 13.2907 23.5511C13.1192 23.5695 12.9494 23.6174 12.7754 23.6087C12.7822 23.6692 12.7846 23.7317 12.7847 23.7926C12.7848 23.846 12.7881 23.9487 12.7823 24.0216L12.6031 24.1282C12.5925 24.1181 12.5834 24.1053 12.5773 24.0894C12.5131 23.9235 12.5265 23.6998 12.5142 23.5271C12.504 23.3846 12.4829 23.2399 12.4763 23.0974C12.4737 23.0424 12.4622 22.9091 12.4734 22.866C12.4842 22.8259 12.5248 22.808 12.527 22.7641C12.529 22.7243 12.4931 22.5573 12.5154 22.5404Z" fill="#FFE1B0"/>
<path d="M10.16 23.2913C10.1663 23.3797 10.1755 23.3627 10.2091 23.4228L10.2093 23.4231C10.2522 23.5 10.1849 23.5199 10.1804 23.5646C10.1693 23.6751 10.1819 23.7913 10.1922 23.9087C10.1354 23.9033 10.0781 23.8989 10.0204 23.8952L10.1593 23.2797C10.1596 23.2835 10.1597 23.2874 10.16 23.2913Z" fill="#FFE1B0"/>
<path d="M11.3082 22.6565C11.3711 22.5708 11.5002 22.655 11.5234 22.7414C11.5427 22.8133 11.5486 23.0511 11.5301 23.123C11.514 23.1854 11.474 23.2323 11.4006 23.2199C11.342 23.2099 11.3186 23.1056 11.3094 23.058C11.2957 22.9872 11.2702 22.7088 11.3082 22.6565Z" fill="#FFE1B0"/>
<path d="M10.3951 22.2336C10.438 22.2305 10.4797 22.2306 10.5177 22.2355C10.5626 22.2414 10.7161 22.2922 10.7367 22.3273C10.8245 22.4767 10.4476 22.4777 10.3733 22.4915C10.3592 22.4942 10.3465 22.4993 10.334 22.5048L10.3951 22.2336Z" fill="#FFE1B0"/>
<path d="M11.4329 21.752C11.4941 21.7452 11.5535 21.8026 11.5597 21.8577L11.5997 22.2178C11.6694 22.2006 11.7446 22.2103 11.8119 22.2052C11.9839 22.1923 12.1552 22.1515 12.3277 22.1651C12.4205 22.1724 12.5406 22.2113 12.6334 22.222L12.6716 22.2246C12.7032 22.2251 12.7368 22.2219 12.7709 22.2173C12.802 22.2942 12.8328 22.3658 12.8634 22.4325C12.6616 22.4346 12.4691 22.4043 12.2736 22.4072C12.0619 22.4102 11.8341 22.465 11.6332 22.4676C11.5836 22.4683 11.5243 22.4435 11.4864 22.4451C11.4601 22.4462 11.444 22.4633 11.4063 22.4565C11.3435 22.4449 11.3209 22.3605 11.3132 22.3081C11.303 22.2387 11.2978 22.118 11.2956 22.0457C11.2929 21.9534 11.3055 21.7662 11.4329 21.752Z" fill="#FFE1B0"/>
<path d="M11.2003 20.3796C11.2961 20.415 11.3886 20.4526 11.4765 20.4924C11.4916 20.6082 11.495 20.7288 11.513 20.8437C11.5853 20.8355 11.6626 20.8301 11.7353 20.8309C11.8481 20.8322 11.8424 20.7053 12.2485 20.8136C12.6546 20.9219 12.2343 20.9965 12.2938 21.0686C12.2012 21.0709 12.108 21.071 12.016 21.0731C11.97 21.0742 11.9213 21.0881 11.8754 21.0886C11.7593 21.0898 11.6344 21.0485 11.5222 21.0987C11.4896 21.1996 11.5468 21.538 11.3786 21.5327C11.2314 21.5282 11.2466 21.2375 11.2278 21.1395C11.164 21.164 11.1212 21.118 11.0728 21.107C10.9726 21.0846 10.8971 21.1164 10.8033 21.1232C10.766 21.1259 10.7063 21.1229 10.6469 21.1182L10.6988 20.8883C10.7952 20.8685 10.8841 20.8522 11.0031 20.8477C11.0547 20.8458 11.2111 20.8782 11.2027 20.81C11.1907 20.7111 11.1242 20.4821 11.1845 20.3952C11.1888 20.389 11.1942 20.3843 11.2003 20.3796Z" fill="#FFE1B0"/>
<path d="M12.8676 20.9492C12.8355 20.7327 13.1818 20.8089 13.3099 20.8091C13.5627 20.8093 13.8069 20.8148 14.0575 20.8207C14.1927 20.824 14.3402 20.8102 14.4728 20.8186C14.4854 20.8194 14.4938 20.8212 14.5017 20.8309C14.5016 20.89 14.5252 20.9617 14.5226 21.0186C14.5224 21.0243 14.5102 21.0355 14.5145 21.0461C14.4536 21.0424 14.382 21.0326 14.3216 21.0355C14.2505 21.039 14.0935 21.0888 14.0445 21.0611C14.0276 21.0513 14.018 21.0278 14.0073 21.0231C13.9858 21.0139 13.7222 21.0225 13.6726 21.0236C13.5118 21.0268 13.3521 21.0329 13.1909 21.0347C13.0932 21.0358 12.8887 21.0915 12.8676 20.9492Z" fill="#FFE1B0"/>
<path d="M18.4344 19.4447C18.5626 19.4218 18.5413 19.5553 18.5553 19.6384C18.5693 19.7225 18.5879 19.8452 18.5849 19.9584C18.4918 19.9712 18.4017 19.9826 18.3151 19.9928C18.3222 19.941 18.3317 19.8872 18.3327 19.8508C18.3359 19.7432 18.2806 19.4722 18.4344 19.4447Z" fill="#FFE1B0"/>
<path d="M11.2342 18.6113C11.3155 18.6234 11.3938 18.6395 11.4694 18.6604C11.47 18.6681 11.4711 18.6755 11.472 18.682C11.4988 18.6846 11.5256 18.6856 11.5526 18.6858C11.7153 18.7396 11.8671 18.8171 12.0141 18.9233C11.9081 18.9744 11.7632 18.9121 11.654 18.9067C11.6327 18.9057 11.4849 18.9105 11.4765 18.9164C11.4634 18.9265 11.467 19.1759 11.4367 19.2333C11.3984 19.3059 11.2761 19.2874 11.2553 19.2082C11.2423 19.158 11.2738 18.9352 11.234 18.915C11.0397 18.9279 10.8457 18.8922 10.653 18.8915C10.5881 18.8913 10.5071 18.9275 10.4561 18.8799C10.3902 18.8185 10.429 18.7349 10.5139 18.7154C10.589 18.6982 10.7463 18.6944 10.8294 18.6912C10.9601 18.6864 11.0921 18.6986 11.2231 18.6903C11.2339 18.6861 11.2332 18.6529 11.2342 18.6113Z" fill="#FFE1B0"/>
<path d="M17.0522 17.6464C17.0894 17.5743 17.2075 17.594 17.2274 17.6734C17.2399 17.7238 17.209 17.9464 17.2475 17.9666C17.4353 17.9555 17.6225 17.9928 17.8086 17.9953C17.8713 17.9961 17.9498 17.9608 17.9989 18.0088C18.0624 18.0708 18.0248 18.1542 17.9428 18.1728C17.8702 18.1893 17.7183 18.1915 17.6379 18.1939C17.5116 18.1976 17.384 18.1842 17.2575 18.1913C17.247 18.1954 17.2477 18.2285 17.2466 18.27C17.1681 18.2572 17.0925 18.2405 17.0195 18.2188C17.0189 18.2111 17.018 18.2038 17.0171 18.1973C16.9913 18.1944 16.9652 18.1932 16.9392 18.1928C16.7821 18.1374 16.6356 18.0585 16.4938 17.951C16.5962 17.9008 16.7361 17.9647 16.8415 17.9711C16.8621 17.9724 17.0051 17.9686 17.0131 17.9628C17.0258 17.9529 17.0228 17.7035 17.0522 17.6464Z" fill="#FFE1B0"/>
<path d="M20.3271 17.4757C20.3504 17.6261 20.3488 17.7897 20.3633 17.9391C20.5033 17.9481 20.6442 17.9678 20.7846 17.9692C20.9272 17.9708 21.0699 17.9559 21.2122 17.9503L20.9341 18.1947C20.8642 18.1826 20.7935 18.1655 20.7312 18.1653C20.6218 18.1647 20.5092 18.2214 20.3968 18.2015L20.3916 18.2086C20.2996 18.2035 20.2074 18.1988 20.1152 18.1949L20.1149 18.1942C20.0287 18.1899 19.9052 18.0894 19.9812 18.0046C20.0078 17.9751 20.0721 17.9671 20.109 17.9545C20.112 17.8547 20.1205 17.754 20.1211 17.654C20.1212 17.6188 20.1145 17.5635 20.1114 17.5068L20.3271 17.4757Z" fill="#FFE1B0"/>
<path d="M10.1247 16.8976C10.1175 16.9495 10.1079 17.0036 10.1069 17.0401C10.1039 17.1478 10.1615 17.4181 10.0024 17.4471C9.8696 17.4712 9.89139 17.3373 9.87675 17.2544C9.862 17.1704 9.84284 17.048 9.8457 16.9348C9.94207 16.9211 10.0351 16.9086 10.1247 16.8976Z" fill="#FFE1B0"/>
<path d="M21.6808 16.3909C21.8037 16.3892 21.8205 16.5912 21.7946 16.6793C21.8782 16.6719 21.9744 16.64 22.01 16.7386C22.0743 16.9172 21.9375 16.9169 21.7986 16.9121C21.7897 16.9755 21.8 17.1068 21.7329 17.1434C21.7063 17.1416 21.6796 17.14 21.6528 17.1382C21.6009 17.0951 21.6013 16.9686 21.5867 16.9178C21.5829 16.9047 21.5814 16.8987 21.5665 16.8955C21.481 16.877 21.3722 16.9178 21.2835 16.9019C21.0781 16.9137 20.7801 16.9568 20.5812 16.9291C20.4949 16.9171 20.3703 16.8446 20.4574 16.7521C20.5159 16.6902 20.7521 16.7279 20.8412 16.727C21.0569 16.7249 21.27 16.7161 21.485 16.7011C21.5183 16.6988 21.5518 16.7105 21.5853 16.7016C21.586 16.6187 21.5545 16.3926 21.6808 16.3909Z" fill="#FFE1B0"/>
<path d="M17.1129 15.3479C17.2551 15.3538 17.24 15.6442 17.258 15.7423C17.3197 15.7184 17.3611 15.7647 17.4078 15.776C17.5045 15.7993 17.5774 15.7684 17.668 15.7625C17.7387 15.7579 17.8919 15.7748 17.9648 15.7864C18.0565 15.8011 18.0715 15.9521 17.9736 15.9708C17.9541 15.9747 17.9352 15.9656 17.9138 15.9694C17.7522 15.9993 17.6453 16.0311 17.4744 16.036C17.4246 16.0374 17.2734 16.0036 17.2814 16.0718C17.2929 16.1708 17.3568 16.4003 17.2985 16.4866C17.2943 16.4929 17.2888 16.4976 17.2829 16.5023C17.1904 16.466 17.1013 16.4275 17.0164 16.3868C17.002 16.2709 16.999 16.1503 16.9818 16.0353C16.9119 16.0429 16.8373 16.0474 16.7671 16.046C16.6581 16.0436 16.6634 16.1708 16.2712 16.0588C15.8791 15.9468 16.2851 15.8759 16.2281 15.8033C16.3175 15.8019 16.4075 15.8027 16.4964 15.8014C16.5408 15.8007 16.5879 15.7874 16.6322 15.7874C16.7444 15.7872 16.8649 15.8294 16.9733 15.7803C17.005 15.6797 16.9505 15.3413 17.1129 15.3479Z" fill="#FFE1B0"/>
<path d="M17.8669 14.4837L18.8051 14.5702C18.736 14.6194 18.5828 14.5678 18.5041 14.5982C18.5047 14.8879 18.504 15.1785 18.5109 15.4683C18.5166 15.7043 18.5431 15.9482 18.5436 16.1825C18.5439 16.2457 18.5409 16.4302 18.4995 16.4719C18.4495 16.5225 18.3578 16.5052 18.3398 16.434C18.3047 15.8309 18.3096 15.2247 18.2945 14.6205C18.1902 14.6435 18.0527 14.6698 17.9461 14.6544C17.9027 14.6481 17.7545 14.5958 17.7346 14.5605C17.6936 14.4877 17.7584 14.4508 17.8439 14.4306L17.8669 14.4837Z" fill="#FFE1B0"/>
<path d="M23.2082 15.7272C23.2015 15.6419 23.2891 15.4371 23.3962 15.5385C23.4476 15.5871 23.4248 15.6733 23.4474 15.735C23.4646 15.7543 23.5942 15.7292 23.6681 15.7914L23.2573 16.1524C23.2542 16.1379 23.2513 16.1258 23.2504 16.1195C23.2464 16.0908 23.2703 16.0362 23.2393 16.0149C23.1831 15.9766 22.9795 16.0537 22.9406 15.9701C22.8376 15.748 23.0598 15.7623 23.2082 15.7272Z" fill="#FFE1B0"/>
<path d="M12.7605 15.84C12.8573 15.8392 13.0212 15.7849 13.1011 15.8395C13.1085 15.8446 13.1753 15.9093 13.1786 15.9149C13.1998 15.9538 13.1963 16 13.162 16.0303C13.0999 16.0853 12.8642 16.0654 12.7745 16.0706L12.7745 16.0701C12.7431 16.0719 12.7108 16.0756 12.678 16.0796C12.5884 16.0812 12.4988 16.0834 12.4102 16.0867C12.4052 16.0875 12.4006 16.0882 12.3957 16.0889L12.3952 16.0891C12.3068 16.0717 12.2158 15.8811 12.3308 15.8376C12.3821 15.8184 12.5643 15.8225 12.6306 15.8232C12.6723 15.8236 12.7175 15.8403 12.7605 15.84Z" fill="#FFE1B0"/>
<path d="M14.2685 15.8182C14.3371 15.8154 14.489 15.7669 14.5364 15.795C14.5526 15.8048 14.5618 15.8285 14.5721 15.8334C14.5929 15.8428 14.848 15.8368 14.8957 15.8362C15.051 15.8345 15.2053 15.8297 15.361 15.8293C15.4555 15.8292 15.6529 15.7756 15.6729 15.918C15.7036 16.1346 15.3694 16.0555 15.2456 16.054C15.0013 16.0514 14.7653 16.0435 14.5231 16.0353C14.3925 16.0308 14.2501 16.0432 14.122 16.0336C14.1099 16.0327 14.1019 16.0306 14.0943 16.0208C14.0945 15.9618 14.0717 15.89 14.0744 15.8331C14.0746 15.8275 14.0862 15.8164 14.0822 15.8059C14.1411 15.8101 14.2101 15.8205 14.2685 15.8182Z" fill="#FFE1B0"/>
<path d="M19.7513 15.7355C19.761 15.7337 19.8193 15.7673 19.8298 15.7779C19.8983 15.847 19.8609 15.936 19.7727 15.9604C19.7 15.9804 19.5614 15.967 19.4804 15.9723C19.3005 15.984 18.9154 16.0501 18.7634 15.9822C18.7464 15.9745 18.7062 15.9472 18.6994 15.9315C18.6491 15.8112 18.753 15.8112 18.82 15.7843C18.8443 15.7745 18.8881 15.7396 18.9044 15.7383C18.9224 15.737 18.9428 15.7603 18.9708 15.762C19.1519 15.7722 19.3562 15.7405 19.5397 15.7457C19.5948 15.7473 19.6668 15.7894 19.7207 15.766C19.735 15.7597 19.743 15.7371 19.7513 15.7355Z" fill="#FFE1B0"/>
<path d="M21.4546 15.9656C21.3095 15.9956 21.1485 16.0203 21.0005 15.9998C20.9304 15.9901 20.8654 15.9781 20.7952 15.9694C20.7118 15.9591 20.6839 15.8505 20.7424 15.8163C20.7569 15.8077 20.8564 15.7866 20.8794 15.7836C21.0588 15.7605 21.2508 15.7978 21.4326 15.7568L21.4546 15.9656Z" fill="#FFE1B0"/>
<path d="M21.8251 14.8492C21.834 14.9321 21.8388 15.0134 21.8266 15.0737C21.8239 15.0872 21.8002 15.0845 21.7983 15.1104C21.791 15.2108 21.8018 15.3939 21.8076 15.5001C21.8101 15.5474 21.8198 15.733 21.873 15.7416C21.9175 15.7488 21.9931 15.7336 22.0392 15.7348C22.131 15.7371 22.2652 15.7687 22.3407 15.7658C22.3738 15.7645 22.3997 15.7486 22.4324 15.7452C22.5678 15.7303 22.6739 15.9286 22.5294 15.9673C22.3299 16.0206 21.9843 15.946 21.7699 15.9602C21.7083 15.947 21.6417 15.9246 21.6239 15.8568C21.6017 15.7726 21.6122 15.6382 21.6014 15.5425C21.5767 15.3259 21.5591 15.1551 21.5476 14.9364C21.5456 14.8988 21.5425 14.8609 21.5402 14.8229L21.8251 14.8492Z" fill="#FFE1B0"/>
<path d="M20.4129 15.9094C20.3571 15.7414 20.6932 15.7377 20.6594 15.9023C20.6416 15.9885 20.441 15.9939 20.4129 15.9094Z" fill="#FFE1B0"/>
<path d="M23.3161 15.3256C23.3513 15.322 23.3828 15.3474 23.3865 15.3825C23.3902 15.4176 23.3645 15.4492 23.3293 15.4529C23.2942 15.4566 23.2627 15.4311 23.2589 15.396C23.2552 15.3609 23.2809 15.3293 23.3161 15.3256Z" fill="#FFE1B0"/>
<path d="M23.4092 14.9955C23.407 15.0712 23.4028 15.1905 23.3829 15.2235C23.3469 15.2832 23.2483 15.2727 23.2203 15.2123L23.207 14.977L23.4092 14.9955Z" fill="#FFE1B0"/>
<path d="M16.869 14.4114C16.9169 14.4112 16.974 14.4363 17.0105 14.4351C17.036 14.4342 17.0516 14.4172 17.088 14.4244C17.1487 14.4365 17.1703 14.5211 17.1776 14.5735C17.1873 14.643 17.1922 14.7639 17.1942 14.8362C17.1967 14.9285 17.1841 15.1155 17.061 15.1284C17.0019 15.1346 16.9445 15.0767 16.9387 15.0215L16.9008 14.6612C16.8334 14.6778 16.7607 14.6672 16.6957 14.6717C16.5295 14.6829 16.364 14.7224 16.1975 14.7072C16.1057 14.6989 15.9863 14.6572 15.8957 14.6468C15.8784 14.657 15.8603 14.6648 15.8422 14.6676C15.7686 14.6791 15.5313 14.6614 15.4617 14.6366C15.4012 14.6151 15.3588 14.5722 15.3785 14.5029C15.3944 14.4475 15.5006 14.4351 15.549 14.4308C15.5998 14.4264 15.7544 14.4268 15.8576 14.442C15.9896 14.4513 16.119 14.4664 16.2499 14.4657C16.4544 14.4646 16.6749 14.4122 16.869 14.4114Z" fill="#FFE1B0"/>
<path d="M15.7703 12.7892C15.7965 12.6951 15.9248 12.6865 15.96 12.7816C16.0216 12.948 16.0084 13.1714 16.0199 13.3441C16.0295 13.4866 16.0494 13.6315 16.0555 13.774C16.0579 13.829 16.0689 13.9625 16.0579 14.0054C16.0474 14.0454 16.0082 14.0628 16.006 14.1066C16.0039 14.1461 16.0383 14.3133 16.0169 14.3303C15.9843 14.3308 15.8644 14.3631 15.8505 14.332L15.8085 14.0525L15.7767 13.5444C15.7544 13.5519 15.7344 13.5599 15.7104 13.5626L15.7101 13.5624C15.5939 13.576 15.4631 13.5632 15.3499 13.5683C15.2927 13.5709 15.2007 13.5815 15.1036 13.5887C15.0299 13.5368 14.9859 13.5289 14.9846 13.5287C14.9847 13.5285 14.9852 13.5277 14.9862 13.5266C14.9831 13.5289 14.9802 13.5311 14.9772 13.5335C15.0134 13.4865 15.0674 13.4151 15.1289 13.3317C15.1508 13.3228 15.1706 13.3116 15.1955 13.309C15.2202 13.3064 15.2447 13.3157 15.2697 13.313C15.4355 13.2961 15.5997 13.2497 15.7677 13.2602C15.7614 13.1996 15.7589 13.1371 15.759 13.0762C15.759 13.0057 15.7537 12.8493 15.7703 12.7892Z" fill="#FFE1B0"/>
<path d="M13.1566 13.2737C13.1881 13.2731 13.2163 13.2773 13.2341 13.2922C13.3954 13.4617 13.2436 13.5231 13.0743 13.5361C13.0649 13.5368 13.0546 13.5366 13.0438 13.5365L13.1566 13.2737Z" fill="#FFE1B0"/>
<path d="M14.561 13.2289C14.6487 13.2255 14.7235 13.3209 14.6646 13.3946C14.6185 13.4522 14.4599 13.4596 14.429 13.3919C14.3822 13.2899 14.4665 13.2324 14.561 13.2289Z" fill="#FFE1B0"/>
<path d="M17.0598 12.6041C17.0291 12.6605 16.9764 12.6881 16.888 12.6375C16.7663 12.5678 16.8602 12.4738 16.8728 12.3789C16.879 12.3317 16.8735 12.2486 16.8716 12.1656L17.0598 12.6041Z" fill="#FFE1B0"/>
</g>
</g>
<defs>
<radialGradient id="paint0_radial_0_195" cx="0" cy="0" r="1" gradientUnits="userSpaceOnUse" gradientTransform="translate(15.4743 17.8676) rotate(90) scale(16.9925 14.7164)">
<stop offset="0.6" stop-color="#0A3880" stop-opacity="0"/>
<stop offset="1" stop-color="#0A3880"/>
</radialGradient>
<linearGradient id="paint1_linear_0_195" x1="15.4743" y1="-4.22989" x2="15.4743" y2="21.4412" gradientUnits="userSpaceOnUse">
<stop stop-color="#C5D9FF"/>
<stop offset="1" stop-color="#C5D9FF" stop-opacity="0"/>
</linearGradient>
</defs>
</svg>
